<svg width="24" height="24" viewBox="0 0 24 24" fill="none" xmlns="http://www.w3.org/2000/svg">
<path d="M3.28243 10.9397C3.00153 11.221 2.84375 11.6022 2.84375 11.9997C2.84375 12.3972 3.00153 12.7785 3.28243 13.0597L8.93843 18.7187C9.21982 19.0001 9.60148 19.1582 9.99943 19.1582C10.3974 19.1582 10.779 19.0001 11.0604 18.7187C11.3418 18.4373 11.4999 18.0557 11.4999 17.6577C11.4999 17.2598 11.3418 16.8781 11.0604 16.5967L7.96443 13.4997L19.4994 13.4997C19.8973 13.4997 20.2788 13.3417 20.5601 13.0604C20.8414 12.7791 20.9994 12.3975 20.9994 11.9997C20.9994 11.6019 20.8414 11.2204 20.5601 10.9391C20.2788 10.6578 19.8973 10.4997 19.4994 10.4997L7.96443 10.4997L11.0604 7.40372C11.1998 7.26439 11.3103 7.09898 11.3857 6.91693C11.4611 6.73488 11.4999 6.53977 11.4999 6.34272C11.4999 6.14568 11.4611 5.95056 11.3857 5.76851C11.3103 5.58647 11.1998 5.42105 11.0604 5.28172C10.9211 5.14239 10.7557 5.03187 10.5736 4.95646C10.3916 4.88105 10.1965 4.84224 9.99943 4.84224C9.80238 4.84224 9.60727 4.88105 9.42522 4.95646C9.24317 5.03187 9.07776 5.14239 8.93843 5.28172L3.28243 10.9397Z" fill="black"/>
</svg>
