<svg width="40" height="40" viewBox="0 0 40 40" fill="none" xmlns="http://www.w3.org/2000/svg">
<path fill-rule="evenodd" clip-rule="evenodd" d="M16.8963 3.02335C17.6429 2.7994 18.4314 2.75308 19.199 2.88807C19.9666 3.02306 20.692 3.33562 21.3174 3.80081C21.9427 4.26601 22.4506 4.87094 22.8006 5.56734C23.1506 6.26373 23.3329 7.03229 23.333 7.81168V32.185C23.3329 32.9644 23.1506 33.733 22.8006 34.4294C22.4506 35.1257 21.9427 35.7307 21.3174 36.1959C20.692 36.6611 19.9666 36.9736 19.199 37.1086C18.4314 37.2436 17.6429 37.1973 16.8963 36.9733L6.89634 33.9733C5.86651 33.6644 4.96369 33.0317 4.32181 32.1692C3.67993 31.3067 3.33318 30.2602 3.33301 29.185V10.8117C3.33318 9.73651 3.67993 8.69003 4.32181 7.82749C4.96369 6.96494 5.86651 6.33228 6.89634 6.02335L16.8963 3.02335ZM24.9997 6.66501C24.9997 6.22299 25.1753 5.79906 25.4878 5.4865C25.8004 5.17394 26.2243 4.99835 26.6663 4.99835H31.6663C32.9924 4.99835 34.2642 5.52513 35.2019 6.46281C36.1396 7.4005 36.6663 8.67226 36.6663 9.99835V11.665C36.6663 12.107 36.4907 12.531 36.1782 12.8435C35.8656 13.1561 35.4417 13.3317 34.9997 13.3317C34.5576 13.3317 34.1337 13.1561 33.8212 12.8435C33.5086 12.531 33.333 12.107 33.333 11.665V9.99835C33.333 9.55632 33.1574 9.1324 32.8449 8.81984C32.5323 8.50728 32.1084 8.33168 31.6663 8.33168H26.6663C26.2243 8.33168 25.8004 8.15609 25.4878 7.84352C25.1753 7.53096 24.9997 7.10704 24.9997 6.66501ZM34.9997 26.665C35.4417 26.665 35.8656 26.8406 36.1782 27.1532C36.4907 27.4657 36.6663 27.8897 36.6663 28.3317V29.9983C36.6663 31.3244 36.1396 32.5962 35.2019 33.5339C34.2642 34.4716 32.9924 34.9983 31.6663 34.9983H26.6663C26.2243 34.9983 25.8004 34.8228 25.4878 34.5102C25.1753 34.1976 24.9997 33.7737 24.9997 33.3317C24.9997 32.8897 25.1753 32.4657 25.4878 32.1532C25.8004 31.8406 26.2243 31.665 26.6663 31.665H31.6663C32.1084 31.665 32.5323 31.4894 32.8449 31.1769C33.1574 30.8643 33.333 30.4404 33.333 29.9983V28.3317C33.333 27.8897 33.5086 27.4657 33.8212 27.1532C34.1337 26.8406 34.5576 26.665 34.9997 26.665ZM14.9997 18.3317C14.5576 18.3317 14.1337 18.5073 13.8212 18.8198C13.5086 19.1324 13.333 19.5563 13.333 19.9983C13.333 20.4404 13.5086 20.8643 13.8212 21.1769C14.1337 21.4894 14.5576 21.665 14.9997 21.665H15.0013C15.4434 21.665 15.8673 21.4894 16.1799 21.1769C16.4924 20.8643 16.668 20.4404 16.668 19.9983C16.668 19.5563 16.4924 19.1324 16.1799 18.8198C15.8673 18.5073 15.4434 18.3317 15.0013 18.3317H14.9997Z" fill="#292D32"/>
<path d="M34.9993 19.9974L31.666 23.3307M26.666 19.9974H34.9993H26.666ZM34.9993 19.9974L31.666 16.6641L34.9993 19.9974Z" stroke="#3366FF" stroke-width="3.33333" stroke-linecap="round" stroke-linejoin="round"/>
</svg>
