<svg width="24" height="25" viewBox="0 0 24 25" fill="none" xmlns="http://www.w3.org/2000/svg">
<g clip-path="url(#clip0_592_30401)">
<path d="M17.94 18.565C16.2306 19.868 14.1491 20.5899 12 20.625C5 20.625 1 12.625 1 12.625C2.24389 10.3069 3.96914 8.28163 6.06 6.68503M9.9 4.86502C10.5883 4.7039 11.2931 4.62336 12 4.62503C19 4.62503 23 12.625 23 12.625C22.393 13.7606 21.6691 14.8298 20.84 15.815M14.12 14.745C13.8454 15.0398 13.5141 15.2762 13.1462 15.4401C12.7782 15.6041 12.3809 15.6923 11.9781 15.6994C11.5753 15.7065 11.1752 15.6324 10.8016 15.4815C10.4281 15.3306 10.0887 15.1061 9.80385 14.8212C9.51897 14.5363 9.29439 14.197 9.14351 13.8234C8.99262 13.4499 8.91853 13.0497 8.92563 12.6469C8.93274 12.2441 9.02091 11.8469 9.18488 11.4789C9.34884 11.1109 9.58525 10.7797 9.88 10.505" stroke="black" stroke-width="2" stroke-linecap="round" stroke-linejoin="round"/>
<path d="M1 1.625L23 23.625" stroke="black" stroke-width="2" stroke-linecap="round" stroke-linejoin="round"/>
</g>
<defs>
<clipPath id="clip0_592_30401">
<rect width="24" height="24" fill="white" transform="translate(0 0.625)"/>
</clipPath>
</defs>
</svg>
