<svg width="32" height="32" viewBox="0 0 32 32" fill="none" xmlns="http://www.w3.org/2000/svg">
<path d="M28.0799 15.7608L27.8666 15.4674C27.4933 15.0141 27.0533 14.6541 26.5466 14.3874C25.8666 14.0008 25.0933 13.8008 24.2933 13.8008H7.69327C6.89327 13.8008 6.13327 14.0008 5.43994 14.3874C4.91994 14.6674 4.45327 15.0541 4.0666 15.5341C3.3066 16.5074 2.9466 17.7074 3.0666 18.9074L3.55994 25.1341C3.73327 27.0141 3.95994 29.3341 8.1866 29.3341H23.8133C28.0399 29.3341 28.2533 27.0141 28.4399 25.1208L28.9333 18.9208C29.0533 17.8008 28.7599 16.6808 28.0799 15.7608ZM19.1866 23.1208H12.7999C12.2799 23.1208 11.8666 22.6941 11.8666 22.1874C11.8666 21.6808 12.2799 21.2541 12.7999 21.2541H19.1866C19.7066 21.2541 20.1199 21.6808 20.1199 22.1874C20.1199 22.7074 19.7066 23.1208 19.1866 23.1208Z" fill="#3366FF"/>
<path opacity="0.4" d="M4.50684 15.0813C4.80017 14.8146 5.0935 14.5746 5.44017 14.388C6.12017 14.0013 6.8935 13.8013 7.6935 13.8013H24.3068C25.1068 13.8013 25.8668 14.0013 26.5602 14.388C26.9068 14.5746 27.2135 14.8146 27.4935 15.0946V14.388V13.0946C27.4935 8.33464 26.0402 6.8813 21.2802 6.8813H18.1068C17.5202 6.8813 17.5068 6.86797 17.1602 6.41464L15.5602 4.26797C14.8002 3.2813 14.2002 2.66797 12.2935 2.66797H10.7202C5.96017 2.66797 4.50684 4.1213 4.50684 8.8813V14.4013V15.0813Z" fill="#3366FF"/>
</svg>
