<svg width="68" height="68" viewBox="0 0 68 68" fill="none" xmlns="http://www.w3.org/2000/svg">
<circle cx="34" cy="34" r="33.5" stroke="#828282" stroke-dasharray="4 4"/>
<path d="M26 23H48C48.55 23 49 23.45 49 24V38C49 38.55 48.55 39 48 39H46.675L40.2563 29.1812C39.9813 28.7562 39.5063 28.5 39 28.5C38.4937 28.5 38.0187 28.7562 37.7437 29.1812L34.4813 34.1688L33.7062 33.1125C33.425 32.725 32.975 32.5 32.4937 32.5C32.0125 32.5 31.5688 32.725 31.2812 33.1125L26.975 39H26C25.45 39 25 38.55 25 38V24C25 23.45 25.45 23 26 23ZM22 24V38C22 40.2062 23.7937 42 26 42H48C50.2062 42 52 40.2062 52 38V24C52 21.7938 50.2062 20 48 20H26C23.7937 20 22 21.7938 22 24ZM19 25.5C19 24.6687 18.3312 24 17.5 24C16.6687 24 16 24.6687 16 25.5V39.5C16 44.1938 19.8063 48 24.5 48H44.5C45.3312 48 46 47.3312 46 46.5C46 45.6688 45.3312 45 44.5 45H24.5C21.4625 45 19 42.5375 19 39.5V25.5ZM32 27C32 26.4696 31.7893 25.9609 31.4142 25.5858C31.0391 25.2107 30.5304 25 30 25C29.4696 25 28.9609 25.2107 28.5858 25.5858C28.2107 25.9609 28 26.4696 28 27C28 27.5304 28.2107 28.0391 28.5858 28.4142C28.9609 28.7893 29.4696 29 30 29C30.5304 29 31.0391 28.7893 31.4142 28.4142C31.7893 28.0391 32 27.5304 32 27Z" fill="black"/>
</svg>
