<svg width="24" height="24" viewBox="0 0 24 24" fill="none" xmlns="http://www.w3.org/2000/svg">
<path d="M16.9887 20.1125L20.6375 16.49L19.535 15.3875L16.9887 17.8813L15.965 16.8575L14.8625 17.9863L16.9887 20.1125ZM5.15 8.3H17.75V6.2H5.15V8.3ZM17.75 23C16.2975 23 15.0592 22.488 14.0351 21.4639C13.011 20.4398 12.4993 19.2018 12.5 17.75C12.5 16.2975 13.012 15.0592 14.0361 14.0351C15.0602 13.011 16.2982 12.4993 17.75 12.5C19.2025 12.5 20.4408 13.0121 21.4649 14.0362C22.489 15.0603 23.0007 16.2982 23 17.75C23 19.2025 22.4879 20.4408 21.4639 21.4649C20.4398 22.489 19.2018 23.0007 17.75 23ZM2 21.95V4.1C2 3.5225 2.2058 3.02795 2.6174 2.61635C3.029 2.20475 3.5232 1.9993 4.1 2H18.8C19.3775 2 19.872 2.2058 20.2836 2.6174C20.6952 3.029 20.9007 3.5232 20.9 4.1V11.1088C20.41 10.8638 19.8979 10.6842 19.3638 10.5701C18.8298 10.456 18.2918 10.3993 17.75 10.4H5.15V12.5H12.605C12.3075 12.7975 12.032 13.1213 11.7786 13.4713C11.5252 13.8213 11.3019 14.1975 11.1087 14.6H5.15V16.7H10.4787C10.4437 16.875 10.4217 17.0458 10.4126 17.2124C10.4035 17.379 10.3993 17.5582 10.4 17.75C10.4 18.485 10.5008 19.1896 10.7024 19.8637C10.904 20.5378 11.2057 21.1807 11.6075 21.7925L11.45 21.95L9.875 20.375L8.3 21.95L6.725 20.375L5.15 21.95L3.575 20.375L2 21.95Z" fill="#EA981D"/>
</svg>
