<svg width="20" height="20" viewBox="0 0 20 20" fill="none" xmlns="http://www.w3.org/2000/svg">
<path d="M14.9984 5.96797C14.9484 5.95964 14.8901 5.95964 14.8401 5.96797C13.6901 5.92631 12.7734 4.98464 12.7734 3.81797C12.7734 2.6263 13.7318 1.66797 14.9234 1.66797C16.1151 1.66797 17.0734 2.63464 17.0734 3.81797C17.0651 4.98464 16.1484 5.92631 14.9984 5.96797Z" stroke="white" stroke-width="1.5" stroke-linecap="round" stroke-linejoin="round"/>
<path d="M14.1383 12.0348C15.28 12.2264 16.5383 12.0264 17.4216 11.4348C18.5966 10.6514 18.5966 9.3681 17.4216 8.58477C16.53 7.9931 15.2549 7.7931 14.1133 7.9931" stroke="white" stroke-width="1.5" stroke-linecap="round" stroke-linejoin="round"/>
<path d="M4.97344 5.96797C5.02344 5.95964 5.08177 5.95964 5.13177 5.96797C6.28177 5.92631 7.19844 4.98464 7.19844 3.81797C7.19844 2.6263 6.24011 1.66797 5.04844 1.66797C3.85677 1.66797 2.89844 2.63464 2.89844 3.81797C2.90677 4.98464 3.82344 5.92631 4.97344 5.96797Z" stroke="white" stroke-width="1.5" stroke-linecap="round" stroke-linejoin="round"/>
<path d="M5.83255 12.0348C4.69088 12.2264 3.43255 12.0264 2.54922 11.4348C1.37422 10.6514 1.37422 9.3681 2.54922 8.58477C3.44089 7.9931 4.71588 7.7931 5.85755 7.9931" stroke="white" stroke-width="1.5" stroke-linecap="round" stroke-linejoin="round"/>
<path d="M10.0023 12.1906C9.95234 12.1823 9.89401 12.1823 9.84401 12.1906C8.69401 12.149 7.77734 11.2073 7.77734 10.0406C7.77734 8.84896 8.73568 7.89062 9.92734 7.89062C11.119 7.89062 12.0773 8.85729 12.0773 10.0406C12.069 11.2073 11.1523 12.1573 10.0023 12.1906Z" stroke="white" stroke-width="1.5" stroke-linecap="round" stroke-linejoin="round"/>
<path d="M7.57656 14.8148C6.40156 15.5982 6.40156 16.8815 7.57656 17.6648C8.9099 18.5565 11.0932 18.5565 12.4266 17.6648C13.6016 16.8815 13.6016 15.5982 12.4266 14.8148C11.1016 13.9315 8.9099 13.9315 7.57656 14.8148Z" stroke="white" stroke-width="1.5" stroke-linecap="round" stroke-linejoin="round"/>
</svg>
