<svg width="21" height="20" viewBox="0 0 21 20" fill="none" xmlns="http://www.w3.org/2000/svg">
<path d="M3.82143 6.78571C3.63199 6.78571 3.45031 6.86097 3.31635 6.99492C3.1824 7.12888 3.10714 7.31056 3.10714 7.5C3.10714 7.68944 3.1824 7.87112 3.31635 8.00508C3.45031 8.13903 3.63199 8.21429 3.82143 8.21429H13.8214C14.0109 8.21429 14.1926 8.13903 14.3265 8.00508C14.4605 7.87112 14.5357 7.68944 14.5357 7.5C14.5357 7.31056 14.4605 7.12888 14.3265 6.99492C14.1926 6.86097 14.0109 6.78571 13.8214 6.78571H3.82143ZM3.82143 9.64286C3.63199 9.64286 3.45031 9.71811 3.31635 9.85207C3.1824 9.98602 3.10714 10.1677 3.10714 10.3571V13.2143C3.10714 13.4037 3.1824 13.5854 3.31635 13.7194C3.45031 13.8533 3.63199 13.9286 3.82143 13.9286H6.67857C6.86801 13.9286 7.04969 13.8533 7.18365 13.7194C7.3176 13.5854 7.39286 13.4037 7.39286 13.2143V10.3571C7.39286 10.1677 7.3176 9.98602 7.18365 9.85207C7.04969 9.71811 6.86801 9.64286 6.67857 9.64286H3.82143ZM4.53571 12.5V11.0714H5.96429V12.5H4.53571ZM9.53571 9.64286C9.34627 9.64286 9.16459 9.71811 9.03064 9.85207C8.89668 9.98602 8.82143 10.1677 8.82143 10.3571C8.82143 10.5466 8.89668 10.7283 9.03064 10.8622C9.16459 10.9962 9.34627 11.0714 9.53571 11.0714H13.8214C14.0109 11.0714 14.1926 10.9962 14.3265 10.8622C14.4605 10.7283 14.5357 10.5466 14.5357 10.3571C14.5357 10.1677 14.4605 9.98602 14.3265 9.85207C14.1926 9.71811 14.0109 9.64286 13.8214 9.64286H9.53571ZM9.53571 12.5C9.34627 12.5 9.16459 12.5753 9.03064 12.7092C8.89668 12.8432 8.82143 13.0248 8.82143 13.2143C8.82143 13.4037 8.89668 13.5854 9.03064 13.7194C9.16459 13.8533 9.34627 13.9286 9.53571 13.9286H13.8214C14.0109 13.9286 14.1926 13.8533 14.3265 13.7194C14.4605 13.5854 14.5357 13.4037 14.5357 13.2143C14.5357 13.0248 14.4605 12.8432 14.3265 12.7092C14.1926 12.5753 14.0109 12.5 13.8214 12.5H9.53571ZM0.25 5.35714C0.25 4.59938 0.55102 3.87266 1.08684 3.33684C1.62266 2.80102 2.34938 2.5 3.10714 2.5H14.5357C15.2935 2.5 16.0202 2.80102 16.556 3.33684C17.0918 3.87266 17.3929 4.59938 17.3929 5.35714C18.1506 5.35714 18.8773 5.65816 19.4132 6.19398C19.949 6.7298 20.25 7.45652 20.25 8.21429V14.6429C20.25 15.5901 19.8737 16.4985 19.204 17.1682C18.5342 17.838 17.6258 18.2143 16.6786 18.2143H3.82143C2.87423 18.2143 1.96582 17.838 1.29605 17.1682C0.626274 16.4985 0.25 15.5901 0.25 14.6429V5.35714ZM16.6786 14.6429C16.4891 14.6429 16.3074 14.5676 16.1735 14.4336C16.0395 14.2997 15.9643 14.118 15.9643 13.9286V5.35714C15.9643 4.97826 15.8138 4.6149 15.5459 4.34699C15.278 4.07908 14.9146 3.92857 14.5357 3.92857H3.10714C2.72826 3.92857 2.3649 4.07908 2.09699 4.34699C1.82908 4.6149 1.67857 4.97826 1.67857 5.35714V14.6429C1.67857 15.2112 1.90434 15.7562 2.3062 16.1581C2.70806 16.56 3.25311 16.7857 3.82143 16.7857H16.6786C17.2469 16.7857 17.7919 16.56 18.1938 16.1581C18.5957 15.7562 18.8214 15.2112 18.8214 14.6429V8.21429C18.8214 7.83541 18.6709 7.47204 18.403 7.20413C18.1351 6.93622 17.7717 6.78571 17.3929 6.78571V13.9286C17.3929 14.118 17.3176 14.2997 17.1836 14.4336C17.0497 14.5676 16.868 14.6429 16.6786 14.6429Z" fill="white"/>
</svg>
