<svg width="38" height="44" viewBox="0 0 38 44" fill="none" xmlns="http://www.w3.org/2000/svg">
<g clip-path="url(#clip0_7_21421)">
<path d="M0.222656 28.6426L0.228649 30.5049L7.28598 34.5648L7.27998 32.7024L0.222656 28.6426Z" fill="#0F0F18"/>
<path d="M7.27734 32.7015L7.28334 34.5638L10.0068 33.0069L10.0023 31.1445L7.27734 32.7015Z" fill="#0F0F18"/>
<path d="M0.222656 28.6429L7.27998 32.7027L10.0049 31.1458L2.94761 27.0859L0.222656 28.6429Z" fill="#434851"/>
<path d="M-15.2812 17.7227L-15.2783 18.9222L14.942 36.3152L14.9375 35.1142L-15.2812 17.7227Z" fill="#2E2E36"/>
<path d="M14.9375 35.1135L14.942 36.3145L25.2097 30.4457L25.2067 29.2461L14.9375 35.1135Z" fill="#1C1C22"/>
<path d="M-15.2812 17.7228L14.9375 35.1143L25.2066 29.247L-5.01359 11.8555L-15.2812 17.7228Z" fill="#434851"/>
<path d="M35.7827 29.03C35.7243 29.03 35.6763 28.9825 35.6763 28.9247V23.8046C35.6763 23.5288 35.5325 23.2827 35.2913 23.1448C35.0501 23.0069 34.7625 23.0069 34.5213 23.1448L32.9724 24.03C32.9214 24.0597 32.8555 24.0419 32.827 23.9915C32.7971 23.9411 32.8151 23.8758 32.866 23.8476L34.415 22.9624C34.7236 22.786 35.0906 22.786 35.3992 22.9624C35.7078 23.1389 35.8906 23.4532 35.8906 23.8061V28.9262C35.8906 28.984 35.8426 29.0314 35.7842 29.0314L35.7827 29.03Z" fill="#434851"/>
<path d="M35.2757 29.8906C35.4989 29.7631 35.6877 29.4399 35.6877 29.1848V27.0645H35.8884V29.1848C35.8884 29.5125 35.6637 29.8995 35.3761 30.0626L34.3963 30.6216C34.3814 30.6305 34.3634 30.635 34.3469 30.635C34.3125 30.635 34.2795 30.6172 34.26 30.5846C34.2316 30.5371 34.248 30.4763 34.2975 30.4482L35.2757 29.8891V29.8906Z" fill="#434851"/>
<path d="M35.0522 28.2897L35.1585 28.3505C35.1331 28.3356 35.1181 28.3045 35.1181 28.26L35.0117 28.1992C35.0117 28.2437 35.0267 28.2763 35.0522 28.2897Z" fill="#EFF0F5"/>
<mask id="mask0_7_21421" style="mask-type:luminance" maskUnits="userSpaceOnUse" x="35" y="28" width="1" height="1">
<path d="M35.0483 28.2897L35.1546 28.3505C35.1292 28.3356 35.1142 28.3045 35.1142 28.26L35.0078 28.1992C35.0078 28.2437 35.0228 28.2763 35.0483 28.2897Z" fill="white"/>
</mask>
<g mask="url(#mask0_7_21421)">
<path d="M35.1142 28.26L35.0078 28.1992C35.0078 28.2437 35.0228 28.2763 35.0483 28.2897L35.1546 28.3505C35.1292 28.3356 35.1142 28.3045 35.1142 28.26Z" fill="#EFF0F5"/>
</g>
<path d="M36.3981 24.6754L36.2918 24.6146C36.2663 24.5998 36.2304 24.6028 36.1914 24.625L36.2978 24.6858C36.3367 24.6636 36.3727 24.6606 36.3981 24.6754Z" fill="#EFF0F5"/>
<mask id="mask1_7_21421" style="mask-type:luminance" maskUnits="userSpaceOnUse" x="36" y="24" width="1" height="1">
<path d="M36.3981 24.6754L36.2918 24.6146C36.2663 24.5998 36.2304 24.6028 36.1914 24.625L36.2978 24.6858C36.3367 24.6636 36.3727 24.6606 36.3981 24.6754Z" fill="white"/>
</mask>
<g mask="url(#mask1_7_21421)">
<path d="M36.3964 24.6759L36.29 24.6151C36.2675 24.6018 36.2361 24.6018 36.2031 24.6181L36.3095 24.6789C36.3439 24.6626 36.3739 24.6626 36.3964 24.6759Z" fill="#EFF0F5"/>
<path d="M36.3112 24.678L36.2049 24.6172C36.2049 24.6172 36.1959 24.6216 36.1914 24.6246L36.2978 24.6854C36.2978 24.6854 36.3068 24.6809 36.3112 24.678Z" fill="#EFF0F5"/>
</g>
<path d="M35.1127 25.5217L35.0078 25.4609L35.0153 28.1996L35.1217 28.2604L35.1127 25.5217Z" fill="#EFF0F5"/>
<path d="M36.2989 24.6877L36.1926 24.627L35.1484 25.223L35.2548 25.2838L36.2989 24.6877Z" fill="#EFF0F5"/>
<path d="M35.255 25.2815L35.1486 25.2207C35.0692 25.2667 35.0078 25.3705 35.0078 25.4609L35.1142 25.5217C35.1142 25.4313 35.1741 25.3275 35.255 25.2815Z" fill="#EFF0F5"/>
<mask id="mask2_7_21421" style="mask-type:luminance" maskUnits="userSpaceOnUse" x="35" y="25" width="1" height="1">
<path d="M35.255 25.2815L35.1486 25.2207C35.0692 25.2667 35.0078 25.3705 35.0078 25.4609L35.1142 25.5217C35.1142 25.4313 35.1741 25.3275 35.255 25.2815Z" fill="white"/>
</mask>
<g mask="url(#mask2_7_21421)">
<path d="M35.2528 25.2815L35.1464 25.2207C35.1225 25.234 35.1015 25.2518 35.082 25.2741L35.1884 25.3349C35.2079 25.3141 35.2288 25.2948 35.2528 25.2815Z" fill="#EFF0F5"/>
<path d="M35.19 25.3342L35.0837 25.2734C35.0627 25.2972 35.0447 25.3253 35.0312 25.355L35.1376 25.4158C35.1511 25.3861 35.1691 25.358 35.19 25.3342Z" fill="#EFF0F5"/>
<path d="M35.1381 25.4143L35.0318 25.3535C35.0183 25.3817 35.0108 25.4128 35.0078 25.4425L35.1142 25.5033C35.1172 25.4736 35.1247 25.444 35.1381 25.4143Z" fill="#EFF0F5"/>
<path d="M35.1142 25.5042L35.0078 25.4434C35.0078 25.4434 35.0078 25.4552 35.0078 25.4612L35.1142 25.5219C35.1142 25.5219 35.1142 25.5101 35.1142 25.5042Z" fill="#EFF0F5"/>
</g>
<path d="M35.2541 25.2809C35.1747 25.3268 35.1133 25.4306 35.1133 25.5211L35.1208 28.2598C35.1208 28.3502 35.1822 28.3858 35.2616 28.3398L36.3057 27.7438C36.3821 27.6993 36.4466 27.594 36.4466 27.5035L36.4391 24.7649C36.4391 24.6744 36.3746 24.6418 36.2982 24.6848L35.2541 25.2809Z" fill="#D1D5E6"/>
<path d="M-0.645777 28.5163L1.24776 27.4279L-0.217334 24.3867L-2.10938 25.4766L-0.645777 28.5163Z" fill="#2E2E37"/>
<path d="M-4.85547 -2.63281L24.8779 14.3584L15.2948 22.0065L-4.85547 17.1237V-2.63281Z" fill="#FF8900"/>
<path d="M-4.85589 -3.98047L27.2354 14.3586L15.2944 21.1823L-16.7969 2.84328L-4.85589 -3.98047ZM24.8775 14.3586L-4.85589 -2.63262L-14.4389 2.84328L-10.4137 5.14307L15.2944 19.8345L20.8522 16.6583L24.8775 14.3586Z" fill="#FFC338"/>
<path d="M12.1935 32.8374L-15.3018 17.1244L-16.7969 2.84375L15.2944 21.1828L17.3992 23.0199L17.0142 24.4686L16.9842 24.4419L14.9094 22.63L12.1935 32.8345V32.8374ZM-16.1257 3.90245L-15.6853 8.10169L-15.5445 9.43915L-14.779 16.7478L-9.88935 19.5413L-8.625 20.2634L-2.95786 23.5018L-1.6935 24.224L4.33766 27.6714L5.60202 28.3935L11.741 31.9018L11.8819 31.3709L13.3275 25.9366L13.6181 24.8452L13.7589 24.3144L14.5289 21.4185L8.78388 18.1357L8.38989 17.9103L7.12554 17.1882L1.48836 13.9661L1.09438 13.7407L-0.169983 13.0186L-5.44313 10.0056L-5.83712 9.78019L-7.10147 9.05808L-15.5235 4.24646L-16.1272 3.90245H-16.1257Z" fill="#FFA200"/>
<path d="M24.1367 26.0137L20.9219 27.8508L22.6821 21.2317L25.8984 19.3945L24.1367 26.0137Z" fill="#E17102"/>
<path d="M15.293 21.1846L27.2354 14.3594L29.3402 16.198L17.3977 23.0218L15.293 21.1846Z" fill="#FFB700"/>
<path d="M12.1953 32.8373L14.9113 22.6328L16.9861 24.4448L15.2109 31.1143L12.1953 32.8373Z" fill="#E17102"/>
<path d="M15.2109 31.1135L16.9861 24.444L17.0161 24.4692L17.4341 24.2305L15.5285 31.3908L15.2109 31.1135Z" fill="#FFA200"/>
<path d="M19.561 28.6269L16.5664 30.3396L18.3266 23.7204L21.3227 22.0078L19.561 28.6269Z" fill="#E17102"/>
<path d="M19.5625 28.6272L21.3242 22.0081L21.7856 21.7441L19.8801 28.9045L19.5625 28.6272Z" fill="#FF8900"/>
<path d="M17.0156 24.4697L17.4006 23.021L29.3431 16.1973L28.9566 17.6459L25.8991 19.3941L22.6828 21.2313L21.7869 21.7429L21.3255 22.0068L18.3294 23.7194L17.4336 24.231L17.0156 24.4697Z" fill="#F7810A"/>
<path d="M16.4232 30.8791L15.5273 31.3907L17.4329 24.2303L18.3287 23.7188L16.5685 30.3379L16.4232 30.8791Z" fill="#F7810A"/>
<path d="M20.7762 28.3928L19.8789 28.9043L21.7844 21.744L22.6803 21.2324L20.9201 27.8516L20.7762 28.3928Z" fill="#F7810A"/>
<path d="M-15.5428 9.43755L-15.6836 8.10156L-8.01056 12.4847L-6.74621 13.2083L-1.07907 16.4466L0.185285 17.1688L6.21645 20.6162L7.4808 21.3383L13.6198 24.8466L13.3292 25.9379L7.58567 22.655L7.19168 22.4297L5.92583 21.7075L0.288651 18.4855L-0.105336 18.2601L-1.36969 17.538L-6.64284 14.525L-7.03683 14.2996L-8.30119 13.576L-14.9406 9.78303L-15.5428 9.43755Z" fill="#FFA200"/>
<path d="M7.12716 17.1895L8.39152 17.913L7.4792 21.3383L6.21484 20.6162L6.35716 20.0853L7.12716 17.1895Z" fill="#FFA200"/>
<path d="M11.7406 31.9016L5.60156 28.3933L6.13637 28.0879L11.8814 31.3708L11.7406 31.9016Z" fill="#FFC338"/>
<path d="M7.47656 21.3373L8.38888 17.9121L8.78287 18.136L8.01287 21.0319L7.47656 21.3373Z" fill="#E17102"/>
<path d="M5.60029 28.3944L4.33594 27.6708L4.47675 27.1399L5.92238 21.707L7.18823 22.4291L5.60029 28.3944Z" fill="#FFA200"/>
<path d="M5.60156 28.3949L7.1895 22.4297L7.58349 22.6551L6.13637 28.0895L5.60156 28.3949Z" fill="#E17102"/>
<path d="M4.33585 27.6714L-1.69531 24.2254L-1.16051 23.9199L4.47667 27.1405L4.33585 27.6714Z" fill="#FFC338"/>
<path d="M-1.69531 24.2269L-0.108873 18.2617L0.285114 18.4871L-1.16051 23.9215L-1.69531 24.2269Z" fill="#E17102"/>
<path d="M0.182325 17.1683L-1.08203 16.4462L-0.941215 15.9154L-0.171215 13.0195L1.09314 13.7431L0.182325 17.1683Z" fill="#FFA200"/>
<path d="M0.183594 17.1694L1.09441 13.7441L1.4884 13.968L0.7184 16.8639L0.183594 17.1694Z" fill="#E17102"/>
<path d="M0.714844 16.8646L1.48484 13.9688L7.12352 17.1908L6.35352 20.0867L0.714844 16.8646Z" fill="#F7810A"/>
<path d="M0.183594 17.1687L0.7184 16.8633L6.35707 20.0854L6.21476 20.6162L0.183594 17.1687Z" fill="#FFC338"/>
<path d="M8.01172 21.0326L8.78172 18.1367L14.5268 21.4196L13.7553 24.3155L8.01172 21.0326Z" fill="#F7810A"/>
<path d="M7.47656 21.3367L8.01287 21.0312L13.7564 24.3141L13.6156 24.845L7.47656 21.3367Z" fill="#FFC338"/>
<path d="M6.13672 28.0887L7.58384 22.6543L13.3274 25.9372L11.8818 31.3716L6.13672 28.0887Z" fill="#F7810A"/>
<path d="M-1.15625 23.9207L0.289372 18.4863L5.92655 21.7084L4.48092 27.1413L-1.15625 23.9207Z" fill="#F7810A"/>
<path d="M24.457 35.7284V36.5692V39.9425L27.0502 38.4612L36.3081 33.1706V29.7973L35.4542 30.2866L35.3239 30.2125V29.7498L36.3081 29.1864V29.0203V28.9551L24.457 35.7284Z" fill="#F7810A"/>
<path d="M36.308 33.1698L33.7148 34.6526L34.1253 34.8869L37.1334 33.1668L36.308 32.6953V33.1698Z" fill="#434851"/>
<path d="M34.1261 34.8885L37.1341 33.1699V36.0747L24.4531 43.321V40.4163L27.4612 38.6977L34.1261 34.8885ZM36.3716 34.2242L34.162 35.486V36.6678L36.5799 35.2858V34.1041L36.3716 34.2227V34.2242ZM27.2365 39.4436L25.0269 40.7069V41.8887L27.4447 40.5067V39.3249L27.2365 39.4436ZM36.4346 36.2956V35.5631L35.6346 36.0198L34.3073 36.7775V37.51L35.6346 36.7523L36.4346 36.2956ZM25.1437 42.0147V42.7472L26.0141 42.249L27.271 41.5313V40.7988L26.0141 41.5165L25.1437 42.0147ZM32.595 36.3268L28.5863 38.6177V40.3911L32.8527 37.9534V36.18L32.5935 36.3282L32.595 36.3268Z" fill="#35353F"/>
<path d="M24.4588 35.7266L22.0664 27.3934L24.0738 26.2457L25.5014 25.4302L30.3087 22.6841L31.7363 21.8686L33.9175 20.623L36.3099 28.9563L24.4588 35.7281V35.7266ZM33.6359 21.1821L33.3512 21.3452L22.4184 27.5921L24.712 34.8637L24.7404 35.1647L35.9579 28.7546L33.6359 21.1821Z" fill="#F7810A"/>
<path d="M18.5586 25.8242V31.0184L18.9016 30.8227V26.0214L18.5586 25.8242Z" fill="#DBDBDB"/>
<path d="M15.9063 34.5665C15.8943 34.5754 15.8839 34.5858 15.8734 34.5947C15.8554 34.6095 15.8389 34.6243 15.8224 34.6406C15.8105 34.651 15.8 34.6629 15.7895 34.6733C15.773 34.6896 15.758 34.7059 15.743 34.7222C15.7326 34.7341 15.7221 34.7459 15.7101 34.7578C15.6951 34.7756 15.6801 34.7919 15.6666 34.8097C15.6562 34.823 15.6457 34.8349 15.6367 34.8482C15.6232 34.8675 15.6097 34.8868 15.5962 34.9061C15.5872 34.9194 15.5783 34.9327 15.5693 34.9461C15.5558 34.9669 15.5423 34.9891 15.5303 35.0113C15.5228 35.0247 15.5138 35.038 15.5063 35.0514C15.4914 35.0781 15.4779 35.1047 15.4644 35.1314C15.4599 35.1418 15.4539 35.1522 15.4479 35.1626C15.4299 35.2011 15.4135 35.2397 15.397 35.2812C15.394 35.2901 15.391 35.2975 15.388 35.3064C15.376 35.339 15.364 35.3717 15.352 35.4058C15.3476 35.4206 15.3431 35.4369 15.3386 35.4517C15.3296 35.4799 15.3221 35.5081 15.3131 35.5362C15.3086 35.554 15.3041 35.5718 15.2996 35.5911C15.2921 35.6193 15.2861 35.646 15.2801 35.6741C15.2756 35.6934 15.2726 35.7142 15.2682 35.7334C15.2622 35.7616 15.2577 35.7898 15.2532 35.8195C15.2502 35.8402 15.2472 35.861 15.2442 35.8817C15.2397 35.9114 15.2367 35.941 15.2337 35.9707C15.2307 35.9915 15.2292 36.0137 15.2277 36.0345C15.2247 36.0686 15.2217 36.1027 15.2202 36.1382C15.2202 36.1546 15.2187 36.1709 15.2172 36.1872C15.2142 36.2391 15.2127 36.2925 15.2127 36.3473L13.6562 37.2429C13.6562 37.1881 13.6577 37.1362 13.6607 37.0828C13.6607 37.0665 13.6622 37.0502 13.6637 37.0324C13.6637 37.0086 13.6667 36.9834 13.6682 36.9597C13.6682 36.9493 13.6697 36.9404 13.6712 36.9301C13.6727 36.9078 13.6757 36.8871 13.6772 36.8648C13.6802 36.8352 13.6847 36.8055 13.6877 36.7758C13.6907 36.7551 13.6937 36.7343 13.6967 36.7136C13.7012 36.6854 13.7057 36.6557 13.7117 36.6276C13.7162 36.6083 13.7192 36.5875 13.7237 36.5683C13.7297 36.5401 13.7356 36.5119 13.7431 36.4852C13.7476 36.4674 13.7521 36.4481 13.7566 36.4304C13.7641 36.4022 13.7731 36.374 13.7821 36.3458C13.7866 36.331 13.7911 36.3147 13.7971 36.2984C13.8076 36.2643 13.821 36.2317 13.833 36.199C13.836 36.1901 13.839 36.1812 13.842 36.1738C13.8585 36.1338 13.875 36.0938 13.8929 36.0552C13.8974 36.0448 13.9034 36.0345 13.9094 36.0241C13.9229 35.9974 13.9364 35.9707 13.9499 35.944C13.9574 35.9307 13.9648 35.9173 13.9738 35.904C13.9873 35.8817 13.9993 35.8595 14.0128 35.8387C14.0218 35.8254 14.0308 35.812 14.0398 35.7987C14.0532 35.7794 14.0667 35.7601 14.0802 35.7409C14.0907 35.7275 14.0997 35.7142 14.1102 35.7023C14.1236 35.6845 14.1386 35.6667 14.1536 35.6504C14.1641 35.6386 14.1746 35.6267 14.1866 35.6148C14.2015 35.5985 14.218 35.5822 14.233 35.5659C14.2435 35.5555 14.2555 35.5437 14.266 35.5333C14.2824 35.517 14.3004 35.5021 14.3169 35.4873C14.3274 35.4784 14.3394 35.468 14.3498 35.4591C14.3693 35.4428 14.3903 35.428 14.4098 35.4147C14.4203 35.4072 14.4292 35.3998 14.4397 35.3924C14.4712 35.3717 14.5012 35.3509 14.5341 35.3331L16.0906 34.4375C16.0591 34.4553 16.0277 34.4761 15.9962 34.4968C15.9857 34.5042 15.9767 34.5116 15.9662 34.5191C15.9453 34.5339 15.9258 34.5487 15.9063 34.5635V34.5665Z" fill="#0F0F18"/>
<path d="M15.8464 39.7392L15.6336 39.3834L15.4823 39.0067L15.4014 38.636V38.5975L15.3984 38.3617V38.295L15.4703 38.0088L15.6007 37.8161L15.6142 37.7953L15.8194 37.6708L15.9422 37.6574L16.0726 37.6426L16.3572 37.7123L16.6523 37.8754L16.9384 38.1215L17.1961 38.4329L17.4088 38.7888L17.5601 39.1654L17.641 39.5361L17.644 39.7555V39.8756L17.5736 40.1618L17.4298 40.3739L17.2246 40.4984L16.9714 40.5266L16.6868 40.4569L16.6463 40.4347L16.4051 40.3012L16.3901 40.2938L16.104 40.0476L15.8464 39.7363V39.7392ZM16.1819 38.2401L16.116 38.2476H16.107L15.9857 38.3232L15.9003 38.4492L15.8568 38.6197L15.8598 38.8214L15.9078 39.0408L15.9977 39.2647L16.1235 39.4768L16.2763 39.6621L16.4471 39.8074L16.6223 39.9053L16.7916 39.9468L16.9414 39.9305L17.0643 39.8564L17.0987 39.806L17.1497 39.7303L17.1931 39.5613L17.1901 39.3596L17.1422 39.1402L17.0523 38.9163L16.9265 38.7042L16.7737 38.5189L16.6029 38.3721L16.4276 38.2742L16.2583 38.2327L16.1834 38.2416L16.1819 38.2401Z" fill="#C2C6D7"/>
<path d="M15.398 38.2939L15.4714 38.0077L15.6002 37.8164L15.3516 37.9588L15.3561 38.3843L15.3995 38.3606L15.398 38.2939Z" fill="#222229"/>
<path d="M15.6152 37.7963L15.8205 37.6718L15.9238 37.6125L16.0077 37.2773L15.4414 37.6006L15.3516 37.9594L15.6002 37.8171L15.6152 37.7963Z" fill="#222229"/>
<path d="M15.8203 37.6722L15.9447 37.6574L16.6233 37.2704L16.5738 37.2422L15.9237 37.6129L15.8203 37.6722Z" fill="#8A94BF"/>
<path d="M15.9453 37.6565L16.0741 37.6432L16.6779 37.2977L16.6239 37.2695L15.9453 37.6565Z" fill="#8A94BF"/>
<path d="M16.0742 37.6443L16.3588 37.714L16.8847 37.4145L16.6779 37.2988L16.0742 37.6443Z" fill="#8A94BF"/>
<path d="M16.3594 37.7116L16.656 37.8747L17.1264 37.6064L16.9256 37.4344L16.8852 37.4121L16.3594 37.7116Z" fill="#C2C6D7"/>
<path d="M16.6562 37.8758L16.9424 38.1234L17.3873 37.8684L17.2839 37.7438L17.1266 37.6074L16.6562 37.8758Z" fill="#E4E6F0"/>
<path d="M16.9414 38.1222L17.1991 38.4336L17.6365 38.183L17.6065 38.1341L17.3863 37.8672L16.9414 38.1222Z" fill="#EFF0F5"/>
<path d="M17.1992 38.4342L17.4119 38.7901L17.8494 38.5409L17.6367 38.1836L17.1992 38.4342Z" fill="#EFF0F5"/>
<path d="M17.4141 38.7901L17.5654 39.1667L18.0088 38.9132L17.8755 38.5811L17.8515 38.541L17.4141 38.7901Z" fill="#EFF0F5"/>
<path d="M17.5625 39.1676L17.6434 39.5398L18.1093 39.2729L18.0614 39.0534L18.0059 38.9141L17.5625 39.1676Z" fill="#E4E6F0"/>
<path d="M17.6445 39.5403L17.6475 39.7598L18.1539 39.4692L18.1104 39.2734L17.6445 39.5403Z" fill="#C2C6D7"/>
<path d="M17.6484 39.7594L17.6499 39.8795L18.1653 39.5844V39.5177L18.1548 39.4688L17.6484 39.7594Z" fill="#C2C6D7"/>
<path d="M17.6515 39.8791L17.5781 40.1652L18.1714 39.8272L18.1669 39.584L17.6515 39.8791Z" fill="#8A94BF"/>
<path d="M17.5774 40.1662L17.4336 40.3797L18.1676 39.9601L18.1721 39.9453L18.1706 39.8281L17.5774 40.1662Z" fill="#8A94BF"/>
<path d="M17.4318 40.3796L17.2266 40.5041L17.5142 40.3395L18.0295 40.0444L18.1658 39.9629L17.4318 40.3796Z" fill="#536868"/>
<path d="M17.2268 40.5044L16.9737 40.5326L16.689 40.4614L16.6486 40.4392L16.5977 40.4688L16.9677 40.6735L17.5339 40.3502L17.5145 40.3398L17.2268 40.5044Z" fill="#222229"/>
<path d="M18.1673 39.9629L18.031 40.0444L17.5156 40.3395L17.5351 40.3499L17.8901 40.4389L17.998 40.427L18.0804 40.3039L18.1673 39.9629Z" fill="#222229"/>
<path d="M15.3555 38.3851L15.4019 38.5971L15.3989 38.3613L15.3555 38.3851Z" fill="#2E2E37"/>
<path d="M15.4414 37.6006L16.0077 37.2774L16.0916 37.1543L15.8998 37.1765L15.6227 37.3337L15.4414 37.6006Z" fill="#222229"/>
<path d="M15.625 37.333L15.9021 37.1758L15.8827 37.1773L15.625 37.333Z" fill="#232323"/>
<path d="M16.0936 37.1544L16.0097 37.2775L15.9258 37.6126L16.5759 37.2419L16.5565 37.2301L16.1999 37.1426L16.0936 37.1544Z" fill="#0F0F18"/>
<path d="M16.4102 40.3047L16.6004 40.4678L16.6513 40.4381L16.4102 40.3047Z" fill="#2E2E37"/>
<path d="M16.9688 40.6729L17.3238 40.7618L17.8901 40.4386L17.535 40.3496L16.9688 40.6729Z" fill="#222229"/>
<path d="M17.3203 40.7609L17.6394 40.7253L17.8971 40.5681L17.9944 40.4258L17.8866 40.4376L17.3203 40.7609Z" fill="#222229"/>
<path d="M16.4284 38.272L16.2591 38.2305L16.1857 38.2394L16.1333 38.315L16.0898 38.484L16.0928 38.6872L16.1408 38.9066L16.2307 39.1305L16.3565 39.3411L16.5093 39.5264L16.6801 39.6732L16.8553 39.7696L17.0231 39.8111L17.098 39.8037L17.1505 39.7266L17.1924 39.5576L17.1909 39.3559L17.143 39.135L17.0531 38.9111L16.9273 38.7005L16.773 38.5152L16.6037 38.3698L16.4284 38.272Z" fill="#0F0F18"/>
<path d="M16.1072 38.2461L15.9844 38.3202L16.1162 38.2461H16.1072Z" fill="#C2C6D7"/>
<path d="M15.9838 38.3218L15.8984 38.4478L16.1306 38.3159L16.1831 38.2402L16.1157 38.2476L15.9838 38.3218Z" fill="#222229"/>
<path d="M15.9013 38.4484L15.8594 38.6189L16.0901 38.4854L16.1335 38.3164L15.9013 38.4484Z" fill="#222229"/>
<path d="M15.8594 38.6178L15.8624 38.8195L16.0931 38.6875L16.0901 38.4844L15.8594 38.6178Z" fill="#222229"/>
<path d="M15.8594 38.8195L15.9073 39.0389L16.138 38.907L16.0901 38.6875L15.8594 38.8195Z" fill="#2E2E37"/>
<path d="M15.9102 39.0402L16 39.2641L16.2307 39.1321L16.1409 38.9082L15.9102 39.0402Z" fill="#434851"/>
<path d="M15.9961 39.2628L16.1219 39.4749L16.3526 39.3414L16.2268 39.1309L15.9961 39.2628Z" fill="#434851"/>
<path d="M16.125 39.4752L16.2778 39.6591L16.5085 39.5271L16.3557 39.3418L16.125 39.4752Z" fill="#434851"/>
<path d="M16.2812 39.6574L16.4505 39.8042L16.6827 39.6722L16.5119 39.5254L16.2812 39.6574Z" fill="#2E2E37"/>
<path d="M16.4453 39.8038L16.6206 39.9002L16.8528 39.7683L16.6775 39.6719L16.4453 39.8038Z" fill="#222229"/>
<path d="M16.6211 39.9015L16.7904 39.9445L17.0211 39.811L16.8533 39.7695L16.6211 39.9015Z" fill="#222229"/>
<path d="M16.793 39.9456L16.9428 39.9278L17.0656 39.8536L17.0986 39.8047L17.0237 39.8121L16.793 39.9456Z" fill="#222229"/>
<path d="M20.8774 39.8799L20.8714 39.3965L19.625 40.1082L19.631 40.5916L20.8774 39.8799Z" fill="#0F0F18"/>
<path d="M20.8711 39.3962L20.6644 38.4473L19.418 39.159L19.6247 40.108L20.8711 39.3962Z" fill="#0F0F18"/>
<path d="M20.6641 38.4467L20.2761 37.4844L19.0312 38.1961L19.4177 39.1584L20.6641 38.4467Z" fill="#0F0F18"/>
<path d="M20.2755 37.4846L19.7332 36.5742L18.4883 37.286L19.0306 38.1964L20.2755 37.4846Z" fill="#0F0F18"/>
<path d="M19.7321 36.5751L19.073 35.7773L17.8281 36.4891L18.4873 37.2868L19.7321 36.5751Z" fill="#0F0F18"/>
<path d="M19.0751 35.7767L18.3425 35.1465L17.0977 35.8582L17.8302 36.4884L19.0751 35.7767Z" fill="#0F0F18"/>
<path d="M18.3437 35.1467L17.5886 34.7285L16.3438 35.4403L17.0988 35.8584L18.3437 35.1467Z" fill="#0F0F18"/>
<path d="M17.5847 34.7282L16.8582 34.5488L15.6133 35.2606L16.3398 35.44L17.5847 34.7282Z" fill="#0F0F18"/>
<path d="M16.862 34.5488L16.5354 34.5859L15.2891 35.2976L15.6171 35.2606L16.862 34.5488Z" fill="#0F0F18"/>
<path d="M16.5357 34.5859L16.2136 34.6215L14.9688 35.3333L15.2893 35.2977L16.5357 34.5859Z" fill="#0F0F18"/>
<path d="M19.7996 41.8598L20.3254 41.541L19.0805 42.2528L18.5547 42.5715L19.7996 41.8598Z" fill="#0F0F18"/>
<path d="M20.3269 41.5403L20.6954 40.9961L19.4491 41.7078L19.082 42.252L20.3269 41.5403Z" fill="#0F0F18"/>
<path d="M20.6995 40.9966L20.8838 40.2656L19.6374 40.9774L19.4531 41.7084L20.6995 40.9966Z" fill="#0F0F18"/>
<path d="M20.8798 40.2644L20.8753 39.8789L19.6289 40.5906L19.6334 40.9762L20.8798 40.2644Z" fill="#0F0F18"/>
<path d="M13.8882 36.9264L14.0725 36.1954L14.441 35.6512L14.9668 35.3324L15.2874 35.2968L15.6155 35.2598L16.342 35.4392L17.097 35.8573L17.8296 36.4875L18.4887 37.2852L19.031 38.1957L19.419 39.158L19.6258 40.107L19.6318 40.5904L19.6362 40.9759L19.452 41.7069L19.0835 42.2511L18.5577 42.5699L17.909 42.6425L17.1824 42.4631L16.4274 42.045L15.6949 41.4148L15.0357 40.617L14.4934 39.7066L14.1054 38.7443L13.8987 37.7953L13.8867 36.9264H13.8882ZM16.4079 40.3042L16.5967 40.4673L16.9667 40.6719L17.3233 40.7594L17.6408 40.7238L17.8985 40.5681L17.9959 40.4243L18.0783 40.3012L18.1652 39.9572L18.1682 39.9424V39.8252L18.1637 39.5821V39.5153L18.1517 39.4664L18.1082 39.2692L18.0603 39.0498L18.0049 38.9104L17.87 38.5767L17.8461 38.5367L17.6333 38.1808L17.6034 38.1304L17.3832 37.8635L17.2798 37.739L17.121 37.6026L16.9203 37.4306L16.8798 37.4083L16.6731 37.2941L16.6192 37.2645L16.5682 37.2363L16.5488 37.2259L16.1922 37.1384L16.0859 37.1503L15.8941 37.1711H15.8746L15.617 37.3297L15.4372 37.5966L15.3473 37.9555L15.3533 38.381L15.3998 38.5916V38.6301L15.4806 39.0008L15.632 39.3774L15.8447 39.7333L16.1023 40.0447L16.3885 40.2908L16.4034 40.2982L16.4079 40.3042Z" fill="#35353F"/>
<path d="M16.6806 35.3276C14.9159 34.3193 13.4747 35.1319 13.4688 37.1396L13.6575 37.2478C13.6635 35.3587 15.0177 34.5936 16.6791 35.5426C18.3404 36.4916 19.6872 38.8018 19.6827 40.6908L19.8699 40.7976C19.8759 38.7914 18.4453 36.3374 16.6791 35.3276H16.6806Z" fill="#222229"/>
<path d="M16.6744 35.3284L18.2309 34.4328C17.9628 34.28 17.7036 34.1688 17.4549 34.0977L15.8984 34.9933C16.1471 35.0644 16.4078 35.1756 16.6744 35.3284Z" fill="#2E2E37"/>
<path d="M15.898 34.9916L17.4545 34.096C16.8777 33.93 16.3609 33.9789 15.9549 34.2132L14.3984 35.1088C14.8059 34.8745 15.3212 34.827 15.898 34.9916Z" fill="#2E2E37"/>
<path d="M19.8666 40.7954L21.4231 39.8998C21.4231 39.5751 21.3871 39.2399 21.3182 38.9004L19.7617 39.796C19.8306 40.1355 19.8681 40.4721 19.8666 40.7954Z" fill="#2E2E37"/>
<path d="M19.7621 39.7969L21.3186 38.9013C21.2197 38.4194 21.0549 37.93 20.8377 37.457L19.2812 38.3526C19.4985 38.8271 19.6633 39.3164 19.7621 39.7969Z" fill="#35353F"/>
<path d="M19.2817 38.3521L20.8381 37.4565C20.5535 36.8352 20.1775 36.2406 19.7401 35.7246L18.1836 36.6202C18.6195 37.1377 18.9955 37.7323 19.2817 38.3521Z" fill="#35353F"/>
<path d="M18.1835 36.6187L19.7399 35.7231C19.3804 35.2976 18.9804 34.9254 18.5565 34.6348L17 35.5304C17.4239 35.8225 17.8239 36.1947 18.1835 36.6187Z" fill="#35353F"/>
<path d="M16.9994 35.5304L18.5558 34.6348C18.4495 34.5621 18.3416 34.4939 18.2323 34.4316L16.6758 35.3272C16.7851 35.3895 16.893 35.4577 16.9994 35.5304Z" fill="#2E2E37"/>
<path d="M23.49 35.5479V36.0164L24.0802 36.3545L24.4562 36.568V39.9428L22.5672 38.8634L22.314 39.0072L21.2564 38.4022L21.0062 37.9841L20.3261 36.6451L19.4872 35.6309L18.5554 34.8302L17.5937 34.2964L16.6694 34.0695L16.3203 34.0666V24.123L17.6161 24.86L17.7105 24.9134L22.0653 27.3941L23.2803 31.6259L23.3746 31.9551L24.4562 35.7273V35.9527L24.0802 35.7377L23.6203 35.4737L23.49 35.5479Z" fill="#FFA200"/>
<path d="M18.5586 31.0184L21.733 32.8333L23.1831 33.5169L21.733 27.6317L18.9016 26.0214L18.5586 25.8242V31.0184Z" fill="#F7810A"/>
<path d="M18.9102 32.1074V33.2388L19.1513 33.1009V32.2453L18.9102 32.1074Z" fill="#191919"/>
<path d="M18.9102 33.2395L19.6068 33.6383V33.361L19.1513 33.1016L18.9102 33.2395Z" fill="#191919"/>
<path d="M19.1523 32.2461V33.1017L19.6078 33.3611V32.5071L19.1523 32.2461Z" fill="#434851"/>
<path d="M33.9149 20.6226L28.1714 17.3516L16.3203 24.1234L22.0638 27.3944L32.3075 21.5404L33.9149 20.6211V20.6226ZM17.745 24.245L17.5307 24.1234L28.1699 18.044L32.703 20.6226L32.4888 20.7442L31.7338 21.1757L22.0638 26.702L17.745 24.245Z" fill="#FFB700"/>
<path d="M22.065 26.7019L32.4914 20.7441L28.1725 18.2871L17.7461 24.2449L22.065 26.7019Z" fill="#FF8900"/>
<path d="M28.1719 18.043L17.5312 24.1238L17.7455 24.2454L28.1719 18.2876V18.043Z" fill="#FFA200"/>
<path d="M32.705 20.623L28.1719 18.043V18.2876L32.4908 20.7446L32.705 20.623Z" fill="#E17102"/>
<path d="M23.4922 35.5483L23.621 35.4742L24.4644 35.9561L25.4591 35.3867L25.5895 35.4609L24.4584 36.1059L23.4922 35.5483Z" fill="#434851"/>
<path d="M25.5881 35.4609L24.457 36.1059V36.5686L25.5881 35.9236V35.4609Z" fill="#434851"/>
<path d="M23.9536 35.8128L23.4922 35.5488V36.0174L24.0839 36.3555L24.4584 36.569V36.1064L23.9536 35.8128Z" fill="#222229"/>
<path d="M36.5866 29.6384V29.1758L35.457 29.8223V30.2849L36.3109 29.7956L36.5866 29.6384Z" fill="#35353F"/>
<path d="M35.4545 30.2868V29.8241L35.3242 29.75V30.2126L35.4545 30.2868Z" fill="#222229"/>
<path d="M35.4545 29.8232L36.5841 29.1767L36.3084 29.0195V29.1856L35.3242 29.7491L35.4545 29.8232Z" fill="#434851"/>
<path d="M36.5793 35.2848V34.1016L36.3711 34.2217V35.1662L36.5793 35.2848Z" fill="#222229"/>
<path d="M34.1641 36.6651L36.5804 35.2846L36.3722 35.166L34.1641 36.4279V36.6651Z" fill="#434851"/>
<path d="M34.1641 36.429L36.3722 35.1672V34.2227L34.1641 35.4845V36.429Z" fill="#C2C6D7"/>
<path d="M27.4465 40.5075V39.3242L27.2383 39.4428V40.3874L27.4465 40.5075Z" fill="#222229"/>
<path d="M25.0273 41.8873L27.4452 40.5068L27.237 40.3867L25.0273 41.65V41.8873Z" fill="#434851"/>
<path d="M25.0273 41.6493L27.237 40.3859V39.4414L25.0273 40.7047V41.6493Z" fill="#C2C6D7"/>
<path d="M34.3047 37.5112L35.632 36.752V36.0195L34.3047 36.7772V37.5112Z" fill="#E4E6F0"/>
<path d="M36.4328 36.2945V35.5605L35.6328 36.0187V36.7512L36.4328 36.2945Z" fill="#DB832B"/>
<path d="M27.271 40.7969L26.0156 41.5145V42.2485L27.271 41.5294V40.7969Z" fill="#E4E6F0"/>
<path d="M25.1445 42.0138V42.7463L26.0164 42.2496V41.5156L25.1445 42.0138Z" fill="#DB832B"/>
<path d="M32.8514 37.9492V36.1758L32.5938 36.3241V37.8024L32.8514 37.9492Z" fill="#222229"/>
<path d="M28.5859 40.3887L32.8524 37.9495L32.5947 37.8027L28.5859 40.0921V40.3887Z" fill="#434851"/>
<path d="M32.5947 37.8045V36.3262L28.5859 38.6171V40.0939L32.5947 37.8045Z" fill="#222229"/>
<path d="M24.7379 35.1651L35.9553 28.7551L35.6422 28.6172L24.7109 34.8641L24.7379 35.1651Z" fill="#FFB700"/>
<path d="M35.9582 28.7561L33.6362 21.1836L33.3516 21.3467L35.6451 28.6183L35.9582 28.7561Z" fill="#FFA200"/>
<path d="M33.3532 21.3457L22.4219 27.5927L24.7154 34.8642L32.369 30.49L35.6467 28.6173L33.3532 21.3457Z" fill="#2E2E37"/>
<path d="M24.4553 43.3178V40.413L20.6562 38.2363V41.0818L24.4553 43.3178Z" fill="#222229"/>
<path d="M33.7178 34.6523L24.4598 39.9414L21.0712 37.9397L20.6562 38.2362L24.4553 40.4129L34.1282 34.8866L33.7178 34.6523Z" fill="#434851"/>
<path d="M23.2501 33.6641V36.8521L17.6803 33.6701V24.9128L17.5859 24.8594V33.7234L23.3445 37.0152V33.6641H23.2501Z" fill="#E17102"/>
<path d="M23.3402 33.3612L22.0728 32.6376L18.8984 30.8227V26.0215L21.7298 27.6318L23.3402 33.3612Z" fill="#35353F"/>
<path d="M18.9016 30.8242L18.5586 31.0199L23.3434 33.7438V33.3538L18.9016 30.8242Z" fill="#FFB700"/>
<path d="M23.7013 42.8837V39.9805L23.4766 40.108V43.0128L23.7013 42.8837Z" fill="#222229"/>
<path d="M23.7039 39.9798L21.4044 38.666L21.1797 38.7935L23.4792 40.1073L23.7039 39.9798Z" fill="#434851"/>
<path d="M23.2969 42.445V42.1114V41.8623V41.6043V41.0216V40.8036V40.5471V40.212V40.0059L23.4781 40.1082V43.0129L23.2969 42.9091V42.703V42.445Z" fill="#2E2E37"/>
<path d="M23.2964 41.8615V42.1106L21.5841 41.132L21.3594 41.003V40.7539L23.2964 41.8615Z" fill="#2E2E37"/>
<path d="M23.2964 40.0061V40.2122L21.5841 39.2335L21.3594 39.106V38.8984L23.2964 40.0061Z" fill="#2E2E37"/>
<path d="M21.357 38.8987V39.1063V39.6964V39.9144V40.7552V41.0043V41.4965V41.5959L23.294 42.7035V42.9096L21.1758 41.6997V38.7949L21.357 38.8987Z" fill="#2E2E37"/>
<path d="M21.5841 41.4646V41.131L21.3594 41.002V41.5936L21.5841 41.4646Z" fill="#222229"/>
<path d="M23.2964 42.4435L21.5841 41.4648L21.3594 41.5938L23.2964 42.7015V42.4435Z" fill="#434851"/>
<path d="M21.5841 39.8241V39.231L21.3594 39.1035V39.9517L21.5841 39.8241Z" fill="#222229"/>
<path d="M23.2964 41.6036L21.5841 40.625L21.3594 40.754L23.2964 41.8616V41.6036Z" fill="#434851"/>
<path d="M21.5841 40.6238V40.0411L21.3594 39.9121V40.7528L21.5841 40.6238Z" fill="#222229"/>
<path d="M23.2964 40.9572V41.1737L21.5841 40.1966L21.3594 40.0676V39.8496L23.2964 40.9572Z" fill="#2E2E37"/>
<path d="M23.2964 40.7018L21.5841 39.7246L21.3594 39.8521L23.2964 40.9598V40.7018Z" fill="#434851"/>
<path d="M22.0634 32.8443C22.005 32.8443 21.957 32.7969 21.957 32.7391V30.8871C21.957 30.4511 22.1937 30.0449 22.5757 29.8269C22.6267 29.7972 22.6926 29.815 22.721 29.8654C22.751 29.9159 22.733 29.9811 22.6821 30.0093C22.366 30.1902 22.1698 30.5253 22.1698 30.8871V32.7391C22.1698 32.7969 22.1218 32.8443 22.0634 32.8443Z" fill="#434851"/>
<path d="M22.4131 36.8293C22.5105 36.8293 22.6154 36.7982 22.7217 36.7374L23.9471 36.0375C23.9951 36.0108 24.0116 35.9485 23.9831 35.9011C23.9546 35.8536 23.8947 35.8373 23.8468 35.864L22.6214 36.5639C22.4985 36.6336 22.3892 36.6484 22.3128 36.6039C22.2349 36.5594 22.1929 36.4586 22.1929 36.3192V34.1677C22.1929 34.1128 22.148 34.0684 22.0926 34.0684C22.0371 34.0684 21.9922 34.1128 21.9922 34.1677V36.3192C21.9922 36.5327 22.0701 36.6958 22.2124 36.7759C22.2723 36.81 22.3412 36.8278 22.4131 36.8278V36.8293Z" fill="#434851"/>
<path d="M21.4584 36.0768L21.5648 36.1376C21.5393 36.1227 21.5243 36.0916 21.5243 36.0471L21.418 35.9863C21.418 36.0323 21.4329 36.0634 21.4584 36.0768Z" fill="#EFF0F5"/>
<mask id="mask3_7_21421" style="mask-type:luminance" maskUnits="userSpaceOnUse" x="21" y="35" width="1" height="2">
<path d="M21.4545 36.0807L21.5609 36.1415C21.5354 36.1266 21.5204 36.0955 21.5204 36.051L21.4141 35.9902C21.4141 36.0362 21.429 36.0673 21.4545 36.0807Z" fill="white"/>
</mask>
<g mask="url(#mask3_7_21421)">
<path d="M21.5204 36.051L21.4141 35.9902C21.4141 36.0362 21.429 36.0673 21.4545 36.0807L21.5609 36.1415C21.5354 36.1266 21.5204 36.0955 21.5204 36.051Z" fill="#EFF0F5"/>
</g>
<path d="M22.8005 32.4606L22.6941 32.3998C22.6687 32.385 22.6327 32.3879 22.5938 32.4102L22.7001 32.471C22.7391 32.4487 22.775 32.4458 22.8005 32.4606Z" fill="#EFF0F5"/>
<mask id="mask4_7_21421" style="mask-type:luminance" maskUnits="userSpaceOnUse" x="22" y="32" width="1" height="1">
<path d="M22.8044 32.4586L22.698 32.3978C22.6726 32.383 22.6366 32.386 22.5977 32.4082L22.704 32.469C22.743 32.4468 22.7789 32.4438 22.8044 32.4586Z" fill="white"/>
</mask>
<g mask="url(#mask4_7_21421)">
<path d="M22.8026 32.4572L22.6963 32.3964C22.6738 32.383 22.6423 32.383 22.6094 32.3994L22.7157 32.4601C22.7502 32.4438 22.7801 32.4438 22.8026 32.4572Z" fill="#EFF0F5"/>
<path d="M22.7175 32.4592L22.6111 32.3984C22.6111 32.3984 22.6022 32.4029 22.5977 32.4059L22.704 32.4666C22.704 32.4666 22.713 32.4622 22.7175 32.4592Z" fill="#EFF0F5"/>
</g>
<path d="M21.515 33.3084L21.4102 33.2461L21.4176 35.9848L21.524 36.0471L21.515 33.3084Z" fill="#EFF0F5"/>
<path d="M22.7013 32.471L22.5949 32.4102L21.5508 33.0062L21.6571 33.067L22.7013 32.471Z" fill="#EFF0F5"/>
<path d="M21.6573 33.0667L21.551 33.0059C21.4716 33.0518 21.4102 33.1556 21.4102 33.2461L21.5165 33.3069C21.5165 33.2164 21.5764 33.1111 21.6573 33.0667Z" fill="#EFF0F5"/>
<mask id="mask5_7_21421" style="mask-type:luminance" maskUnits="userSpaceOnUse" x="21" y="33" width="1" height="1">
<path d="M21.6573 33.0667L21.551 33.0059C21.4716 33.0518 21.4102 33.1556 21.4102 33.2461L21.5165 33.3069C21.5165 33.2164 21.5764 33.1111 21.6573 33.0667Z" fill="white"/>
</mask>
<g mask="url(#mask5_7_21421)">
<path d="M21.6552 33.0667L21.5488 33.0059C21.5248 33.0192 21.5038 33.037 21.4844 33.0592L21.5907 33.12C21.6102 33.0993 21.6312 33.08 21.6552 33.0667Z" fill="#EFF0F5"/>
<path d="M21.5924 33.1194L21.486 33.0586C21.4651 33.0823 21.4471 33.1105 21.4336 33.1401L21.54 33.2009C21.5534 33.1713 21.5714 33.1431 21.5924 33.1194Z" fill="#EFF0F5"/>
<path d="M21.5405 33.2014L21.4341 33.1406C21.4206 33.1688 21.4132 33.1999 21.4102 33.2296L21.5165 33.2904C21.5195 33.2607 21.527 33.2311 21.5405 33.2014Z" fill="#EFF0F5"/>
<path d="M21.5165 33.2893L21.4102 33.2285C21.4102 33.2285 21.4102 33.2404 21.4102 33.2463L21.5165 33.3071C21.5165 33.3071 21.5165 33.2952 21.5165 33.2893Z" fill="#EFF0F5"/>
</g>
<path d="M21.6564 33.068C21.577 33.1139 21.5156 33.2177 21.5156 33.3082L21.5231 36.0469C21.5231 36.1373 21.5845 36.1729 21.6639 36.1269L22.7081 35.5309C22.7845 35.4864 22.8489 35.3811 22.8489 35.2907L22.8414 32.552C22.8414 32.4615 22.777 32.4289 22.7006 32.4719L21.6564 33.068Z" fill="#D1D5E6"/>
<path d="M27.332 35.8398L33.8396 32.121V31.7266L27.332 35.4454V35.8398Z" fill="#2E2E37"/>
<path d="M26.7305 36.5694L34.4484 32.1596V31.7637L26.7305 36.1749V36.5694Z" fill="#E17102"/>
<path d="M26.7305 35.7905L34.4484 31.3807V30.9863L26.7305 35.3961V35.7905Z" fill="#E17102"/>
<path d="M27.332 36.6171L33.8396 32.8983V32.5039L27.332 36.2227V36.6171Z" fill="#2E2E37"/>
<path d="M26.7305 37.3472L34.4484 32.9374V32.543L26.7305 36.9528V37.3472Z" fill="#E17102"/>
<path d="M27.332 37.3945L33.8396 33.6757V33.2812L27.332 37.0001V37.3945Z" fill="#2E2E37"/>
<path d="M26.7305 38.1241L34.4484 33.7128V33.3184L26.7305 37.7296V38.1241Z" fill="#E17102"/>
</g>
<defs>
<clipPath id="clip0_7_21421">
<rect width="53.9299" height="47.2992" fill="white" transform="translate(-16.7969 -3.97852)"/>
</clipPath>
</defs>
</svg>
